<svg width="267" height="178" viewBox="0 0 267 178" fill="none" xmlns="http://www.w3.org/2000/svg">
<path d="M126.919 96.553C126.919 97.721 126.802 98.8533 126.577 99.95C126.577 99.95 126.577 99.95 126.577 99.9642C124.663 107.171 113.549 123.33 52.5489 123.33C52.5489 123.33 85.2941 116.785 85.9128 98.0272C85.9273 97.842 85.9346 97.664 85.9346 97.4859C86.0365 83.2287 56.319 66.8921 29.9423 55.2057L0.501465 0C52.1267 21.1437 126.919 58.3605 126.919 96.553Z" fill="white"/>
<path d="M140.092 96.553C140.092 97.721 140.209 98.8533 140.434 99.95C140.434 99.95 140.434 99.95 140.434 99.9642C142.349 107.171 153.463 123.33 214.462 123.33C214.462 123.33 181.717 116.785 181.098 98.0272C181.084 97.842 181.077 97.664 181.077 97.4859C180.975 83.2287 210.692 66.8921 237.069 55.2057L266.51 0C214.884 21.1437 140.092 58.3605 140.092 96.553Z" fill="white"/>
<path d="M133.732 117.148C127.421 117.148 121.999 121.179 119.553 126.969C118.673 129.063 118.185 131.391 118.185 133.841C118.185 135.97 118.556 138.014 119.24 139.887C119.248 139.909 119.255 139.937 119.27 139.958L119.553 140.678C119.553 140.678 119.553 140.692 119.561 140.706L133.739 177.332L147.917 140.706C147.917 140.706 147.924 140.685 147.924 140.678L148.274 139.78C148.929 137.936 149.293 135.928 149.293 133.834C149.293 131.384 148.798 129.055 147.917 126.962C145.479 121.172 140.049 117.141 133.739 117.141L133.732 117.148Z" fill="white"/>
<path d="M133.731 66.301C140.041 66.301 145.464 62.2703 147.909 56.4805C148.79 54.3868 149.278 52.0581 149.278 49.6083C149.278 47.4789 148.906 45.4351 148.222 43.5621C148.215 43.5408 148.208 43.5123 148.193 43.4909L147.909 42.7716C147.909 42.7716 147.909 42.7574 147.902 42.7432L133.724 20.0684L119.546 42.7432C119.546 42.7432 119.538 42.7645 119.538 42.7716L119.189 43.6689C118.534 45.5134 118.17 47.5217 118.17 49.6154C118.17 52.0652 118.665 54.3939 119.546 56.4876C121.984 62.2774 127.413 66.3081 133.724 66.3081L133.731 66.301Z" fill="white"/>
</svg>
